<?xml version="1.0" encoding="UTF-8" standalone="no"?>
<svg
   fill="none"
   height="40.844738"
   viewBox="0 0 48.226315 40.844738"
   width="48.226315"
   version="1.1"
   id="svg12"
   sodipodi:docname="immunefi.svg"
   inkscape:version="1.3.2 (091e20e, 2023-11-25)"
   inkscape:export-filename="logo-white.png"
   inkscape:export-xdpi="96"
   inkscape:export-ydpi="96"
   xmlns:inkscape="http://www.inkscape.org/namespaces/inkscape"
   xmlns:sodipodi="http://sodipodi.sourceforge.net/DTD/sodipodi-0.dtd"
   xmlns="http://www.w3.org/2000/svg"
   xmlns:svg="http://www.w3.org/2000/svg">
  <defs
     id="defs12" />
  <sodipodi:namedview
     id="namedview12"
     pagecolor="#ffffff"
     bordercolor="#000000"
     borderopacity="0.25"
     inkscape:showpageshadow="2"
     inkscape:pageopacity="0.0"
     inkscape:pagecheckerboard="0"
     inkscape:deskcolor="#d1d1d1"
     inkscape:zoom="4.0641711"
     inkscape:cx="75.046053"
     inkscape:cy="20.791447"
     inkscape:window-width="1392"
     inkscape:window-height="1212"
     inkscape:window-x="0"
     inkscape:window-y="25"
     inkscape:window-maximized="0"
     inkscape:current-layer="g4" />
  <g
     fill="#ffffff"
     id="g12"
     transform="translate(-0.73815787,-0.24605264)">
    <g
       clip-rule="evenodd"
       fill-rule="evenodd"
       id="g4"
       style="fill:#000000">
      <path
         d="M 10.4146,17.8578 23.3182,30.993 36.084,17.9981 46.5509,28.6528 34.3897,41.0323 31.2612,37.9325 40.3772,28.6528 36.084,24.2825 23.3182,37.2775 10.4146,24.1423 6.17365,28.4594 15.4283,37.8802 12.2998,40.98 0,28.4594 Z"
         id="path1"
         style="fill:#800080" />
      <path
         d="M 36.1364,24.142 23.2328,11.0069 10.4671,24.0018 1.6022e-4,13.347 12.1613,0.967594 15.2898,4.0674 6.1738,13.347 10.4671,17.7174 23.2328,4.7224 36.1364,17.8576 40.3774,13.5404 31.1227,4.11966 34.2512,1.01985 46.551,13.5404 Z"
         id="path2"
         style="fill:#800080" />
      <path
         d="M 21.3066,40.7237 V 32.448 h 4.2137 v 8.2757 z"
         id="path3"
         style="fill:#800080" />
      <path
         d="M 21.3066,9.55185 V 1.27619 h 4.2137 v 8.27566 z"
         id="path4"
         style="fill:#800080" />
    </g>
    <rect
       style="fill:none"
       id="rect12"
       width="48.226315"
       height="40.844738"
       x="0.73815787"
       y="0.24605264" />
  </g>
</svg>
