<svg xmlns="http://www.w3.org/2000/svg" width="134" height="35" viewBox="0 0 134 35" fill="none">
  <g clip-path="url(#clip0_8_34)">
    <path fill-rule="evenodd" clip-rule="evenodd" d="M110.932 12.2763C110.828 11.9727 110.667 11.6913 110.448 11.434C110.229 11.1768 109.957 10.9602 109.635 10.7843C109.312 10.6103 108.93 10.5215 108.492 10.5215C108.262 10.5215 108.061 10.4456 107.887 10.2938C107.714 10.142 107.628 9.92543 107.628 9.64592C107.628 8.9203 107.374 8.30019 106.866 7.78559C106.358 7.27285 105.748 7.01555 105.032 7.01555H98.1137C97.3978 7.01555 96.7877 7.271 96.28 7.78559C95.7722 8.30019 95.5183 8.9203 95.5183 9.64592H95.5202V13.1518C95.5202 12.4281 95.2645 11.808 94.7585 11.2934C94.2508 10.7788 93.6389 10.5215 92.9248 10.5215C92.6946 10.5215 92.4919 10.44 92.3184 10.2771C92.1467 10.1124 92.059 9.90322 92.059 9.64592C92.059 8.9203 91.8052 8.30019 91.2992 7.78559C90.7915 7.27285 90.1796 7.01555 89.4655 7.01555H84.2747C83.5605 7.01555 82.9505 7.271 82.4427 7.78559C81.935 8.30019 81.6811 8.9203 81.6811 9.64592C81.6811 9.85509 81.5989 10.055 81.4382 10.242C81.2774 10.4289 81.0692 10.5215 80.8153 10.5215C80.1012 10.5215 79.4893 10.7788 78.9816 11.2934C78.4738 11.808 78.2218 12.4281 78.2218 13.1518V20.1674C78.2218 20.7653 78.3935 21.2928 78.7405 21.7482C78.2473 21.2799 77.6592 21.0429 76.9761 21.0429H75.2465C75.0383 21.0429 74.8428 20.9689 74.6584 20.8153C74.4739 20.6635 74.3807 20.4469 74.3807 20.1674V2.63037C74.3807 1.9066 74.1269 1.28649 73.6191 0.771895C73.1132 0.257298 72.5013 0 71.7872 0C71.073 0 70.4612 0.257298 69.9534 0.771895C69.4456 1.28649 69.1918 1.9066 69.1918 2.63037V9.64592C69.1918 8.9203 68.9379 8.30019 68.4301 7.78559C67.9224 7.27285 67.3123 7.01555 66.5964 7.01555C65.8804 7.01555 65.2703 7.271 64.7626 7.78559C64.2548 8.30019 64.0028 8.9203 64.0028 9.64592V20.1674C64.0028 20.4247 63.9206 20.6357 63.7599 20.7986C63.5991 20.9615 63.3909 21.0429 63.137 21.0429H57.9481C57.6942 21.0429 57.486 20.9615 57.3252 20.7986C57.1645 20.6357 57.0823 20.4247 57.0823 20.1674V9.64592C57.0823 8.9203 56.8285 8.30019 56.3225 7.78559C55.8148 7.27285 55.2029 7.01555 54.4888 7.01555C53.7746 7.01555 53.1628 7.271 52.655 7.78559C52.1472 8.30019 51.8934 8.9203 51.8934 9.64592V13.1093C51.8842 12.404 51.6304 11.7969 51.1336 11.2934C50.6258 10.7788 50.0139 10.5215 49.2998 10.5215C49.0459 10.5215 48.8377 10.44 48.677 10.2771C48.5144 10.1124 48.434 9.90322 48.434 9.64407C48.434 8.9203 48.1802 8.30019 47.6724 7.78559C47.1665 7.27285 46.5546 7.0137 45.8405 7.0137H40.6497C40.4433 7.0137 40.246 6.93965 40.0616 6.78602C39.8771 6.63423 39.7858 6.41765 39.7858 6.13814V2.63037C39.7858 1.9066 39.5319 1.28649 39.0241 0.771895C38.5164 0.257298 37.9063 0 37.1904 0C36.4744 0 35.8644 0.257298 35.3566 0.771895C34.8488 1.28649 34.5968 1.9066 34.5968 2.63037V13.1518C34.5968 12.4281 34.3411 11.808 33.8352 11.2934C33.3274 10.7788 32.7155 10.5215 32.0014 10.5215C31.8169 10.5215 31.6251 10.4456 31.4297 10.2938C31.2343 10.142 31.1357 9.92543 31.1357 9.64592C31.1357 8.9203 30.8818 8.30019 30.374 7.78559C29.8681 7.27285 29.2562 7.01555 28.5403 7.01555H19.892C19.1778 7.01555 18.566 7.271 18.0582 7.78559C17.5504 8.30019 17.2984 8.9203 17.2984 9.64592C17.2984 10.3715 17.5523 10.9898 18.0582 11.5044C18.566 12.019 19.1778 12.2763 19.892 12.2763H28.5403C28.7266 12.2763 28.9165 12.3522 29.1119 12.504C29.3074 12.6558 29.406 12.8723 29.406 13.1518C29.406 13.4314 29.3074 13.6498 29.1119 13.8016C28.9165 13.9534 28.7266 14.0292 28.5403 14.0292H19.892C19.1778 14.0292 18.566 14.2865 18.0582 14.8011C17.5578 15.3083 17.3039 15.921 17.2984 16.6337V13.1518C17.2984 12.4281 17.0427 11.808 16.5368 11.2934C16.029 10.7788 15.4171 10.5215 14.703 10.5215C14.4491 10.5215 14.2409 10.44 14.0802 10.2771C13.9194 10.1124 13.8391 9.90322 13.8391 9.64407C13.8391 8.9203 13.5834 8.30019 13.0774 7.78559C12.5697 7.27285 11.9578 7.0137 11.2437 7.0137H6.05471C5.8465 7.0137 5.65107 6.93965 5.46659 6.78602C5.28212 6.63423 5.18897 6.41765 5.18897 6.13814V2.63037C5.18897 1.9066 4.93509 1.28649 4.42734 0.771895C3.92141 0.257298 3.30954 0 2.5954 0C1.88125 0 1.26939 0.257298 0.761634 0.771895C0.253878 1.28649 0 1.9066 0 2.63037V23.6752C0 24.3989 0.253878 25.019 0.761634 25.5336C1.26756 26.0482 1.87943 26.3055 2.5954 26.3055H11.2437C11.9578 26.3055 12.5697 26.0464 13.0774 25.5336C13.5834 25.019 13.8391 24.3989 13.8391 23.6752C13.8391 23.3938 13.9304 23.1772 14.1149 23.0254C14.2993 22.8737 14.4948 22.7978 14.703 22.7978C15.4171 22.7978 16.029 22.5405 16.5368 22.0259C17.0445 21.5113 17.2984 20.8912 17.2984 20.1674C17.2984 20.8912 17.5523 21.5113 18.06 22.0259C18.566 22.5405 19.1778 22.7978 19.892 22.7978C20.1002 22.7978 20.2956 22.8792 20.4801 23.0439C20.6646 23.2068 20.7577 23.4179 20.7577 23.6752C20.7577 24.3989 21.0116 25.019 21.5193 25.5336C22.0253 26.0482 22.6371 26.3055 23.3513 26.3055H32.0014C32.7155 26.3055 33.3274 26.0482 33.8352 25.5336C34.3429 25.019 34.5968 24.3989 34.5968 23.6752C34.5968 24.3989 34.8507 25.019 35.3566 25.5336C35.8644 26.0482 36.4762 26.3055 37.1904 26.3055H45.8405C46.5546 26.3055 47.1665 26.0464 47.6724 25.5336C48.1802 25.019 48.434 24.3989 48.434 23.6752C48.434 23.3938 48.5272 23.1772 48.7117 23.0254C48.8961 22.8737 49.0916 22.7978 49.2998 22.7978C50.0139 22.7978 50.6258 22.5405 51.1336 22.0259C51.6322 21.5187 51.8861 20.9097 51.8934 20.197C51.9007 20.9097 52.1545 21.5187 52.655 22.0259C53.1609 22.5405 53.7728 22.7978 54.4888 22.7978C54.7426 22.7978 54.949 22.8848 55.1116 23.0606C55.2723 23.2365 55.3527 23.4419 55.3527 23.6752C55.3527 24.3989 55.6066 25.019 56.1143 25.5336C56.6221 26.0482 57.2321 26.3055 57.9481 26.3055H63.137C63.3909 26.3055 63.5991 26.387 63.7599 26.5499C63.9206 26.7146 64.0028 26.9238 64.0028 27.1811C64.0028 27.4384 63.9206 27.6494 63.7599 27.8123C63.5991 27.977 63.3909 28.0585 63.137 28.0585H54.4888C53.7728 28.0585 53.1609 28.3158 52.655 28.8304C52.1472 29.3431 51.8934 29.9651 51.8934 30.6889C51.8934 31.4126 52.1472 32.0346 52.655 32.5473C53.1609 33.0619 53.7728 33.3192 54.4888 33.3192H63.137C63.8512 33.3192 64.4631 33.0619 64.9708 32.5473C65.4786 32.0327 65.7324 31.4126 65.7324 30.6889C65.7324 30.4556 65.8128 30.2502 65.9735 30.0762C66.1343 29.9003 66.3425 29.8115 66.5964 29.8115C67.3105 29.8115 67.9224 29.5542 68.4301 29.0414C68.9379 28.5268 69.1918 27.9067 69.1918 27.1811V20.1674C69.1918 20.8912 69.4456 21.5113 69.9534 22.0259C70.4593 22.5405 71.0712 22.7978 71.7872 22.7978C71.9935 22.7978 72.189 22.8737 72.3753 23.0254C72.5579 23.1772 72.6511 23.3938 72.6511 23.6752C72.6511 24.3989 72.905 25.019 73.4127 25.5336C73.9186 26.0482 74.5305 26.3055 75.2465 26.3055H76.9761C77.6903 26.3055 78.3021 26.0464 78.8081 25.5336C79.3158 25.019 79.5697 24.3989 79.5697 23.6752C79.5697 23.0754 79.3962 22.5479 79.0492 22.0925C79.5423 22.5627 80.1322 22.7978 80.8153 22.7978C81.0692 22.7978 81.2774 22.8792 81.4382 23.0439C81.5989 23.2068 81.6811 23.4179 81.6811 23.6752C81.6811 24.3989 81.935 25.019 82.4427 25.5336C82.9487 26.0482 83.5605 26.3055 84.2747 26.3055H89.4655C90.1796 26.3055 90.7915 26.0464 91.2992 25.5336C91.8052 25.019 92.059 24.3989 92.059 23.6752C92.059 23.4882 92.1339 23.2938 92.2855 23.0958C92.4334 22.8977 92.6471 22.7978 92.9248 22.7978C93.6389 22.7978 94.2508 22.5405 94.7585 22.0259C95.2663 21.5113 95.5202 20.8912 95.5202 20.1674V23.6752C95.5202 24.3989 95.7722 25.019 96.28 25.5336C96.7877 26.0482 97.3996 26.3055 98.1137 26.3055C98.8279 26.3055 99.4397 26.0464 99.9475 25.5336C100.455 25.019 100.709 24.3989 100.709 23.6752V13.1518C100.709 12.9186 100.79 12.7131 100.95 12.5391C101.113 12.3633 101.319 12.2763 101.573 12.2763H105.032C105.241 12.2763 105.436 12.3577 105.62 12.5206C105.805 12.6854 105.898 12.8945 105.898 13.1518V23.6752C105.898 24.3989 106.152 25.019 106.66 25.5336C107.166 26.0482 107.778 26.3055 108.492 26.3055C109.206 26.3055 109.82 26.0464 110.325 25.5336C110.833 25.019 111.087 24.3989 111.087 23.6752V13.1518C111.087 12.8723 111.036 12.5799 110.932 12.2763ZM12.1076 20.1674C12.1076 20.471 12.0163 20.6931 11.8318 20.8338C11.6473 20.9745 11.4519 21.0429 11.2437 21.0429H6.05471C5.82275 21.0429 5.62184 20.9615 5.44833 20.7986C5.27664 20.6357 5.18897 20.4247 5.18897 20.1674V13.1518C5.18897 12.9427 5.26934 12.7428 5.43189 12.5558C5.59262 12.3688 5.80084 12.2763 6.05471 12.2763H11.2437C11.4976 12.2763 11.704 12.3633 11.8665 12.5391C12.0272 12.7131 12.1076 12.9186 12.1076 13.1518V20.1674ZM29.1302 20.7986C28.9439 20.9615 28.7485 21.0429 28.5403 21.0429H23.3513C23.1449 21.0429 22.9476 20.9615 22.7632 20.7986C22.5787 20.6357 22.4874 20.4247 22.4874 20.1674C22.4874 19.9564 22.5677 19.7583 22.7285 19.5713C22.891 19.3844 23.0974 19.29 23.3513 19.29H28.5403C28.7941 19.29 29.0023 19.3844 29.1631 19.5713C29.3256 19.7583 29.406 19.9564 29.406 20.1674C29.406 20.4247 29.3128 20.6357 29.1302 20.7986ZM46.7044 20.1674C46.7044 20.471 46.6112 20.6931 46.4286 20.8338C46.2423 20.9745 46.0469 21.0429 45.8405 21.0429H40.6515C40.4195 21.0429 40.2186 20.9615 40.0451 20.7986C39.8716 20.6357 39.7858 20.4247 39.7858 20.1674V13.1518C39.7858 12.9427 39.8661 12.7428 40.0269 12.5558C40.1894 12.3688 40.3958 12.2763 40.6497 12.2763H45.8405C46.0925 12.2763 46.3007 12.3633 46.4633 12.5391C46.624 12.7131 46.7044 12.9186 46.7044 13.1518V20.1674ZM90.3294 20.1674C90.3294 20.471 90.2362 20.6931 90.0536 20.8338C89.8673 20.9745 89.6718 21.0429 89.4655 21.0429H84.2765C84.0445 21.0429 83.8436 20.9615 83.6701 20.7986C83.4966 20.6357 83.4107 20.4247 83.4107 20.1674V13.1518C83.4107 12.9427 83.4911 12.7446 83.6537 12.5558C83.8144 12.3688 84.0208 12.2763 84.2747 12.2763H89.4655C89.7175 12.2763 89.9257 12.3633 90.0883 12.5391C90.249 12.7131 90.3294 12.9186 90.3294 13.1518V20.1674Z" fill="#F5F7F2"/>
    <path d="M69.3396 31.2423C69.3396 31.035 69.4127 30.8573 69.5569 30.7111C69.7012 30.5648 69.8766 30.4908 70.0811 30.4908C70.1542 30.4908 70.2126 30.4667 70.2583 30.4205C70.304 30.3742 70.3277 30.3131 70.3277 30.2409C70.3277 30.0336 70.4008 29.8577 70.5451 29.7096C70.6893 29.5634 70.8647 29.4894 71.0693 29.4894H72.5523C72.6254 29.4894 72.6838 29.4653 72.7295 29.419C72.7752 29.3727 72.7989 29.3117 72.7989 29.2395V28.238C72.7989 28.0307 72.872 27.853 73.0163 27.7068C73.1605 27.5606 73.3359 27.4865 73.5405 27.4865C73.745 27.4865 73.9204 27.5606 74.0646 27.7068C74.2089 27.853 74.282 28.0307 74.282 28.238V34.2503C74.282 34.4576 74.2089 34.6353 74.0646 34.7816C73.9204 34.9278 73.745 35.0018 73.5405 35.0018H71.0693C70.8647 35.0018 70.6893 34.9278 70.5451 34.7816C70.4008 34.6353 70.3277 34.4576 70.3277 34.2503C70.3277 34.1707 70.3021 34.1078 70.2492 34.0652C70.1962 34.0226 70.1396 34.0004 70.0811 34.0004C69.8766 34.0004 69.7012 33.9264 69.5569 33.7801C69.4127 33.6339 69.3396 33.4562 69.3396 33.2489V31.2442V31.2423ZM72.5523 33.4969C72.6181 33.4969 72.6765 33.4729 72.7259 33.4266C72.7752 33.3803 72.8007 33.3192 72.8007 33.247V31.2423C72.8007 31.1812 72.777 31.1257 72.7313 31.072C72.6857 31.0183 72.6254 30.9924 72.5542 30.9924H71.0711C70.998 30.9924 70.9396 31.0165 70.8939 31.0683C70.8483 31.1183 70.8245 31.1775 70.8245 31.2442V33.2489C70.8245 33.3359 70.8501 33.3988 70.903 33.4395C70.956 33.4803 71.0126 33.5006 71.0711 33.5006H72.5542L72.5523 33.4969Z" fill="#BEDCC9"/>
    <path d="M75.272 31.2423C75.272 31.035 75.345 30.8573 75.4893 30.7111C75.6336 30.5648 75.809 30.4908 76.0135 30.4908C76.0866 30.4908 76.145 30.4649 76.1907 30.4112C76.2363 30.3575 76.2601 30.3001 76.2601 30.2409C76.2601 30.0336 76.3331 29.8577 76.4774 29.7096C76.6217 29.5634 76.7971 29.4894 77.0016 29.4894H78.4847C78.6893 29.4894 78.8628 29.5634 79.0089 29.7096C79.1532 29.8559 79.2263 30.0336 79.2263 30.2409C79.2263 30.3149 79.2518 30.3742 79.3011 30.4205C79.3505 30.4667 79.4089 30.4908 79.4747 30.4908C79.6792 30.4908 79.8546 30.5648 79.9988 30.7111C80.1431 30.8573 80.2162 31.035 80.2162 31.2423V33.247C80.2162 33.4544 80.1431 33.6321 79.9988 33.7783C79.8546 33.9245 79.6792 33.9986 79.4747 33.9986C79.3961 33.9986 79.334 34.0263 79.292 34.0837C79.2482 34.1411 79.2281 34.1948 79.2281 34.2485C79.2281 34.4558 79.155 34.6335 79.0107 34.7797C78.8664 34.926 78.6911 35 78.4865 35H77.0035C76.7989 35 76.6236 34.926 76.4793 34.7797C76.335 34.6335 76.2619 34.4558 76.2619 34.2485C76.2619 34.1744 76.2382 34.1152 76.1925 34.0689C76.1468 34.0226 76.0866 33.9986 76.0153 33.9986C75.8108 33.9986 75.6354 33.9245 75.4911 33.7783C75.3469 33.6321 75.2738 33.4544 75.2738 33.247V31.2423H75.272ZM78.4847 33.4969C78.5432 33.4969 78.5998 33.4766 78.6528 33.4358C78.7057 33.3951 78.7313 33.3322 78.7313 33.2452V31.2405C78.7313 31.1738 78.7075 31.1146 78.6619 31.0646C78.6162 31.0146 78.5559 30.9887 78.4847 30.9887H77.0016C76.9286 30.9887 76.8701 31.0146 76.8245 31.0683C76.7788 31.122 76.7551 31.1794 76.7551 31.2386V33.2433C76.7551 33.3174 76.7806 33.3766 76.8299 33.4229C76.8793 33.4692 76.9377 33.4932 77.0035 33.4932H78.4865L78.4847 33.4969Z" fill="#BEDCC9"/>
    <path d="M81.2043 31.2423C81.2043 31.035 81.2774 30.8573 81.4217 30.7111C81.566 30.5648 81.7413 30.4908 81.9459 30.4908C82.0189 30.4908 82.0774 30.4667 82.1231 30.4205C82.1687 30.3742 82.1925 30.3131 82.1925 30.2409C82.1925 30.0336 82.2655 29.8577 82.4098 29.7096C82.5541 29.5634 82.7294 29.4894 82.934 29.4894H84.9121C85.1166 29.4894 85.292 29.5634 85.4362 29.7096C85.5805 29.8559 85.6536 30.0336 85.6536 30.2409C85.6536 30.4482 85.5805 30.6259 85.4362 30.7722C85.292 30.9184 85.1166 30.9924 84.9121 30.9924H82.934C82.8609 30.9924 82.8025 31.0165 82.7568 31.0683C82.7112 31.1183 82.6874 31.1775 82.6874 31.2442V33.2489C82.6874 33.3285 82.7148 33.3914 82.7714 33.434C82.8281 33.4784 82.881 33.4988 82.934 33.4988H84.9121C85.1166 33.4988 85.292 33.5728 85.4362 33.7191C85.5805 33.8653 85.6536 34.043 85.6536 34.2503C85.6536 34.4576 85.5805 34.6353 85.4362 34.7816C85.292 34.9278 85.1166 35.0018 84.9121 35.0018H82.934C82.7294 35.0018 82.5541 34.9278 82.4098 34.7816C82.2655 34.6353 82.1925 34.4576 82.1925 34.2503C82.1925 34.1707 82.1669 34.1078 82.1139 34.0652C82.061 34.0226 82.0043 34.0004 81.9459 34.0004C81.7413 34.0004 81.566 33.9264 81.4217 33.7801C81.2774 33.6339 81.2043 33.4562 81.2043 33.2489V31.2442V31.2423Z" fill="#BEDCC9"/>
    <path d="M89.8563 33.4969C89.9294 33.4969 89.9878 33.4729 90.0335 33.4266C90.0791 33.3803 90.1029 33.3192 90.1029 33.247C90.1029 33.1804 90.0791 33.1212 90.0335 33.0712C89.9878 33.0212 89.9275 32.9953 89.8563 32.9953H87.3851C87.1805 32.9953 87.0052 32.9212 86.8609 32.775C86.7166 32.6288 86.6436 32.4511 86.6436 32.2438V31.2423C86.6436 31.035 86.7166 30.8573 86.8609 30.7111C87.0052 30.5648 87.1805 30.4908 87.3851 30.4908C87.4582 30.4908 87.5166 30.4667 87.5623 30.4149C87.6079 30.3649 87.6317 30.3057 87.6317 30.2391C87.6317 30.0317 87.7047 29.8559 87.849 29.7078C87.9933 29.5616 88.1686 29.4875 88.3732 29.4875H90.8444C91.049 29.4875 91.2243 29.5616 91.3686 29.7078C91.5129 29.854 91.586 30.0317 91.586 30.2391C91.586 30.4464 91.5129 30.6241 91.3686 30.7703C91.2243 30.9165 91.049 30.9906 90.8444 30.9906H88.3732C88.3002 30.9906 88.2417 31.0146 88.196 31.0609C88.1504 31.1072 88.1266 31.1683 88.1266 31.2405C88.1266 31.3127 88.1504 31.3738 88.196 31.42C88.2417 31.4663 88.302 31.4904 88.3732 31.4904H90.8444C91.049 31.4904 91.2243 31.5644 91.3686 31.7107C91.5129 31.8569 91.586 32.0346 91.586 32.2419V33.2433C91.586 33.4507 91.5129 33.6284 91.3686 33.7746C91.2243 33.9208 91.049 33.9949 90.8444 33.9949C90.7714 33.9949 90.7129 34.0189 90.6672 34.0708C90.6216 34.1207 90.5978 34.18 90.5978 34.2466C90.5978 34.4539 90.5248 34.6316 90.3805 34.7779C90.2362 34.9241 90.0609 34.9981 89.8563 34.9981H87.3851C87.1805 34.9981 87.0052 34.9241 86.8609 34.7779C86.7166 34.6316 86.6436 34.4539 86.6436 34.2466C86.6436 34.0393 86.7166 33.8616 86.8609 33.7154C87.0052 33.5691 87.1805 33.4951 87.3851 33.4951H89.8563V33.4969Z" fill="#BEDCC9"/>
    <path fill-rule="evenodd" clip-rule="evenodd" d="M116.373 3.29675C116.287 3.05981 116.344 2.79511 116.521 2.61555L118.915 0.188803C119.091 0.0111002 119.354 -0.048134 119.587 0.0388662L124.694 1.93991C124.82 1.98619 124.902 2.10836 124.902 2.24349V3.37634C124.902 3.46149 124.87 3.54479 124.809 3.60402L123.567 4.86275C123.48 4.9516 123.348 4.98122 123.231 4.93679L121.86 4.42405L120.353 3.86132C120.225 3.81319 120.101 3.93907 120.148 4.06864L121.209 6.98593C121.253 7.10439 121.224 7.23767 121.136 7.32652L120.031 8.44642C119.907 8.57229 119.907 8.77776 120.031 8.90363L121.142 10.0291C121.229 10.1179 121.259 10.2512 121.215 10.3697L120.154 13.287C120.106 13.4165 120.23 13.5424 120.358 13.4943L123.237 12.4188C123.354 12.3744 123.485 12.404 123.573 12.4929L124.809 13.746C124.87 13.8071 124.902 13.8886 124.902 13.9737V15.1066C124.902 15.2417 124.82 15.362 124.694 15.4101L119.595 17.3167C119.361 17.4037 119.1 17.3464 118.923 17.1668L116.528 14.7401C116.353 14.5623 116.294 14.2958 116.38 14.0589L118.256 8.90734C118.309 8.76295 118.309 8.60376 118.256 8.45938L116.375 3.29119L116.373 3.29675Z" fill="#BEDCC9"/>
    <path fill-rule="evenodd" clip-rule="evenodd" d="M133.96 14.0644C134.046 14.3014 133.989 14.5661 133.812 14.7456L131.417 17.1724C131.242 17.3501 130.979 17.4093 130.745 17.3223L125.638 15.4213C125.512 15.375 125.43 15.2528 125.43 15.1177V13.9848C125.43 13.8997 125.463 13.8164 125.523 13.7571L126.765 12.4984C126.853 12.4096 126.984 12.3799 127.101 12.4244L128.473 12.9371L129.98 13.4998C130.108 13.548 130.232 13.4221 130.184 13.2925L129.123 10.3752C129.079 10.2568 129.109 10.1235 129.196 10.0346L130.301 8.91475C130.426 8.78887 130.426 8.58341 130.301 8.45753L129.191 7.33208C129.103 7.24323 129.074 7.10996 129.118 6.99149L130.179 4.0742C130.226 3.94463 130.102 3.81876 129.974 3.86688L127.096 4.94236C126.979 4.98678 126.848 4.95716 126.76 4.86831L125.523 3.61514C125.463 3.55405 125.43 3.47261 125.43 3.38746V2.2546C125.43 2.11948 125.514 1.99916 125.638 1.95103L130.742 0.0407252C130.975 -0.046275 131.236 0.0111081 131.414 0.190662L133.808 2.61741C133.983 2.79512 134.042 3.06167 133.956 3.29861L132.08 8.45013C132.027 8.59451 132.027 8.75371 132.08 8.89809L133.962 14.0663L133.96 14.0644Z" fill="#BEDCC9"/>
  </g>
  <defs>
    <clipPath id="clip0_8_34">
      <rect width="134" height="35" fill="white"/>
    </clipPath>
  </defs>
</svg>