<svg xmlns="http://www.w3.org/2000/svg" width="19" height="18" stroke="none" stroke-linecap="round" stroke-linejoin="round" fill="#33c5ce" fill-rule="evenodd"><path d="M-.2795 2.8001c-.086-.237-.029-.5017.148-.6812l2.394-2.4268c.1761-.1777.4391-.2369.672-.1499l5.107 1.901c.1261.0463.208.1685.208.3036v1.1329c0 .0851-.032.1684-.0929.2276l-1.242 1.2588c-.0871.0888-.219.1184-.336.074l-1.3711-.5127-1.5069-.5628c-.1281-.0481-.252.0778-.205.2074l1.0609 2.9173a.324.324 0 0 1-.073.3405L3.3786 7.9497c-.1241.1259-.1241.3314 0 .4572l1.1109 1.1255a.326.326 0 0 1 .073.3406l-1.061 2.9173c-.0479.1295.076.2554.2041.2073l2.879-1.0755c.117-.0444.2479-.0148.3359.0741l1.2361 1.2531c.0609.0611.0929.1426.0929.2277v1.1329c0 .1351-.0819.2554-.208.3035L2.9425 16.82c-.2339.087-.495.0297-.672-.1499l-2.3949-2.4267c-.175-.1778-.234-.4443-.148-.6812l1.8759-5.1515a.65.65 0 0 0 0-.448L-.2774 2.7945l-.0021.0056zM18.21 13.5662c.086.237.029.5017-.148.6812l-2.395 2.4268c-.175.1777-.438.2369-.672.1499l-5.106-1.901c-.127-.0463-.209-.1685-.209-.3036v-1.1329c0-.0851.033-.1684.093-.2277l1.242-1.2587c.088-.0888.22-.1185.337-.074l1.371.5127 1.507.5627c.128.0482.252-.0777.205-.2073L13.373 9.877c-.043-.1184-.014-.2517.073-.3406l1.105-1.1198c.125-.1259.125-.3314 0-.4572l-1.11-1.1255c-.088-.0889-.117-.2221-.073-.3406l1.061-2.9173c.048-.1296-.077-.2554-.204-.2073l-2.879 1.0755c-.117.0444-.248.0148-.336-.0741L9.773 3.117a.324.324 0 0 1-.093-.2277V1.7564c0-.1351.084-.2554.209-.3035l5.103-1.9104c.233-.087.495-.0296.672.15l2.394 2.4267c.176.1777.234.4443.148.6812L16.33 7.952c-.053.1443-.053.3035 0 .4479l1.882 5.1682-.002-.0019z"/></svg>