<svg xmlns="http://www.w3.org/2000/svg" width="19" height="18" stroke="none" stroke-linecap="round" stroke-linejoin="round" fill="#bedcc9" fill-rule="evenodd"><path d="M-.279 2.7975c-.086-.237-.029-.5017.148-.6812L2.263-.3105c.1761-.1777.4391-.2369.672-.1499l5.107 1.901c.1261.0463.208.1685.208.3036v1.1329c0 .0851-.032.1684-.0929.2276l-1.242 1.2588c-.0871.0888-.219.1184-.336.074L5.208 3.9248 3.7011 3.362c-.1281-.0481-.252.0778-.205.2074L4.557 6.4866a.324.324 0 0 1-.073.3406L3.3791 7.9471c-.1241.1259-.1241.3314 0 .4573L4.49 9.5298a.326.326 0 0 1 .073.3406l-1.061 2.9173c-.0479.1295.076.2554.2041.2073l2.879-1.0755c.117-.0444.2479-.0148.3359.0741l1.2361 1.2531c.0609.0611.0929.1426.0929.2277v1.1329c0 .1351-.0819.2554-.208.3035l-5.099 1.9066c-.2339.087-.495.0297-.672-.1499l-2.3949-2.4267c-.175-.1778-.234-.4443-.148-.6812L1.604 8.4081a.65.65 0 0 0 0-.448L-.2769 2.7919l-.0021.0056zm18.4896 10.7661c.086.237.029.5017-.148.6812l-2.395 2.4268c-.175.1777-.438.2369-.672.1499l-5.107-1.901c-.126-.0463-.208-.1685-.208-.3036V13.484c0-.0851.033-.1684.093-.2277l1.242-1.2587c.088-.0888.219-.1185.336-.074l1.372.5127 1.507.5627c.128.0482.252-.0777.204-.2073l-1.061-2.9173c-.044-.1184-.014-.2517.073-.3406l1.105-1.1198a.326.326 0 0 0 0-.4573l-1.11-1.1254c-.088-.0888-.117-.2221-.073-.3406l1.061-2.9173c.047-.1295-.077-.2554-.205-.2073l-2.878 1.0755c-.117.0444-.248.0148-.336-.0741l-1.237-1.2531a.324.324 0 0 1-.093-.2277V1.7538c0-.1351.084-.2554.208-.3036l5.104-1.9103c.233-.087.494-.0296.672.15l2.394 2.4267c.175.1777.234.4443.148.6812l-1.876 5.1516c-.053.1443-.053.3035 0 .4479l1.882 5.1682-.002-.0019z"/></svg>