<?xml version="1.0" encoding="UTF-8" standalone="no"?>
<svg
   id="Layer_1"
   viewBox="0 0 800 240"
   version="1.1"
   sodipodi:docname="light.svg"
   inkscape:version="1.3.2 (091e20e, 2023-11-25)"
   xmlns:inkscape="http://www.inkscape.org/namespaces/inkscape"
   xmlns:sodipodi="http://sodipodi.sourceforge.net/DTD/sodipodi-0.dtd"
   xmlns="http://www.w3.org/2000/svg"
   xmlns:svg="http://www.w3.org/2000/svg">
  <sodipodi:namedview
     id="namedview1"
     pagecolor="#ffffff"
     bordercolor="#000000"
     borderopacity="0.25"
     inkscape:showpageshadow="2"
     inkscape:pageopacity="0.0"
     inkscape:pagecheckerboard="0"
     inkscape:deskcolor="#d1d1d1"
     inkscape:zoom="0.95"
     inkscape:cx="458.42105"
     inkscape:cy="184.73684"
     inkscape:window-width="1520"
     inkscape:window-height="1212"
     inkscape:window-x="0"
     inkscape:window-y="25"
     inkscape:window-maximized="0"
     inkscape:current-layer="Layer_1" />
  <defs
     id="defs1">
    <style
       id="style1">.cls-1{fill:#ce6533;fill-rule:evenodd;}</style>
    <clipPath
       clipPathUnits="userSpaceOnUse"
       id="clipPath1">
      <rect
         style="fill:none;fill-opacity:1"
         id="rect2"
         width="134.73686"
         height="117.89475"
         x="671.57892"
         y="182.10527" />
    </clipPath>
    <clipPath
       clipPathUnits="userSpaceOnUse"
       id="clipPath3">
      <rect
         style="fill:none;fill-opacity:1"
         id="rect4"
         width="633.6842"
         height="204.21053"
         x="25.263159"
         y="17.894737" />
    </clipPath>
  </defs>
  <path
     class="cls-1"
     d="m 648.95105,94.214737 c -0.57,-1.64 -1.45,-3.16 -2.65,-4.55 -1.2,-1.39 -2.69,-2.56 -4.45,-3.51 -1.77,-0.94 -3.86,-1.42 -6.26,-1.42 -1.26,0 -2.36,-0.41 -3.31,-1.23 -0.95,-0.82 -1.42,-1.99 -1.42,-3.5 0,-3.92 -1.39,-7.27 -4.17,-10.05 -2.78,-2.77 -6.12,-4.16 -10.04,-4.16 h -37.88 c -3.92,0 -7.26,1.38 -10.04,4.16 -2.78,2.78 -4.17,6.13 -4.17,10.05 h 0.01 v 18.94 c 0,-3.91 -1.4,-7.26 -4.17,-10.04 -2.78,-2.78 -6.13,-4.17 -10.04,-4.17 -1.26,0 -2.37,-0.44 -3.32,-1.32 -0.94,-0.89 -1.42,-2.02 -1.42,-3.41 0,-3.92 -1.39,-7.27 -4.16,-10.05 -2.78,-2.77 -6.13,-4.16 -10.04,-4.16 h -28.42 c -3.91,0 -7.25,1.38 -10.03,4.16 -2.78,2.78 -4.17,6.13 -4.17,10.05 0,1.13 -0.45,2.21 -1.33,3.22 -0.88,1.01 -2.02,1.51 -3.41,1.51 -3.91,0 -7.26,1.39 -10.04,4.17 -2.78,2.78 -4.16,6.13 -4.16,10.04 v 37.900003 c 0,3.23 0.94,6.08 2.84,8.54 -2.7,-2.53 -5.92,-3.81 -9.66,-3.81 h -9.47 c -1.14,0 -2.21,-0.4 -3.22,-1.23 -1.01,-0.82 -1.52,-1.99 -1.52,-3.5 V 42.104737 c 0,-3.91 -1.39,-7.26 -4.17,-10.04 -2.77,-2.78 -6.12,-4.17 -10.03,-4.17 -3.91,0 -7.26,1.39 -10.04,4.17 -2.78,2.78 -4.17,6.13 -4.17,10.04 v 37.9 c 0,-3.92 -1.39,-7.27 -4.17,-10.05 -2.78,-2.77 -6.12,-4.16 -10.04,-4.16 -3.92,0 -7.26,1.38 -10.04,4.16 -2.78,2.78 -4.16,6.13 -4.16,10.05 v 56.840003 c 0,1.39 -0.45,2.53 -1.33,3.41 -0.88,0.88 -2.02,1.32 -3.41,1.32 h -28.41 c -1.39,0 -2.53,-0.44 -3.41,-1.32 -0.88,-0.88 -1.33,-2.02 -1.33,-3.41 V 80.004737 c 0,-3.92 -1.39,-7.27 -4.16,-10.05 -2.78,-2.77 -6.13,-4.16 -10.04,-4.16 -3.91,0 -7.26,1.38 -10.04,4.16 -2.78,2.78 -4.17,6.13 -4.17,10.05 v 18.71 c -0.05,-3.81 -1.44,-7.09 -4.16,-9.81 -2.78,-2.78 -6.13,-4.17 -10.04,-4.17 -1.39,0 -2.53,-0.44 -3.41,-1.32 -0.89,-0.89 -1.33,-2.02 -1.33,-3.42 0,-3.91 -1.39,-7.26 -4.17,-10.04 -2.77,-2.77 -6.12,-4.17 -10.03,-4.17 h -28.42 c -1.13,0 -2.21,-0.4 -3.22,-1.23 -1.01,-0.82 -1.51,-1.99 -1.51,-3.5 v -18.95 c 0,-3.91 -1.39,-7.26 -4.17,-10.04 -2.78,-2.78 -6.12,-4.17 -10.04,-4.17 -3.92,0 -7.26,1.39 -10.04,4.17 -2.78,2.78 -4.16,6.13 -4.16,10.04 v 56.84 c 0,-3.91 -1.4,-7.26 -4.17,-10.04 -2.78,-2.78 -6.13,-4.17 -10.04,-4.17 -1.01,0 -2.06,-0.41 -3.13,-1.23 -1.07,-0.82 -1.61,-1.99 -1.61,-3.5 0,-3.92 -1.39,-7.27 -4.17,-10.05 -2.77,-2.77 -6.12,-4.16 -10.04,-4.16 h -47.35 c -3.91,0 -7.26,1.38 -10.04,4.16 -2.78,2.78 -4.16,6.13 -4.16,10.05 0,3.92 1.39,7.26 4.16,10.04 2.78,2.78 6.13,4.17 10.04,4.17 h 47.35 c 1.02,0 2.06,0.41 3.13,1.23 1.07,0.82 1.61,1.99 1.61,3.5 0,1.510003 -0.54,2.690003 -1.61,3.510003 -1.07,0.82 -2.11,1.23 -3.13,1.23 h -47.35 c -3.91,0 -7.26,1.39 -10.04,4.17 -2.74,2.74 -4.13,6.05 -4.16,9.9 V 98.944737 c 0,-3.91 -1.4,-7.26 -4.17,-10.04 -2.78,-2.78 -6.13,-4.17 -10.04,-4.17 -1.39,0 -2.53,-0.44 -3.41,-1.32 -0.88,-0.89 -1.32,-2.02 -1.32,-3.42 0,-3.91 -1.4,-7.26 -4.17,-10.04 -2.78,-2.77 -6.13,-4.17 -10.04,-4.17 H 74.741052 c -1.14,0 -2.21,-0.4 -3.22,-1.23 -1.01,-0.82 -1.52,-1.99 -1.52,-3.5 v -18.95 c 0,-3.91 -1.39,-7.26 -4.17,-10.04 -2.77,-2.78 -6.12,-4.17 -10.03,-4.17 -3.91,0 -7.26,1.39 -10.04,4.17 -2.78,2.78 -4.17,6.13 -4.17,10.04 V 155.79474 c 0,3.91 1.39,7.26 4.17,10.04 2.77,2.78 6.12,4.17 10.04,4.17 h 47.349998 c 3.91,0 7.26,-1.4 10.04,-4.17 2.77,-2.78 4.17,-6.13 4.17,-10.04 0,-1.52 0.5,-2.69 1.51,-3.51 1.01,-0.82 2.08,-1.23 3.22,-1.23 3.91,0 7.26,-1.39 10.04,-4.17 2.78,-2.78 4.17,-6.13 4.17,-10.04 0,3.91 1.39,7.26 4.17,10.04 2.77,2.78 6.12,4.17 10.03,4.17 1.14,0 2.21,0.44 3.22,1.33 1.01,0.88 1.52,2.02 1.52,3.41 0,3.91 1.39,7.26 4.17,10.04 2.77,2.78 6.12,4.17 10.03,4.17 h 47.36 c 3.91,0 7.26,-1.39 10.04,-4.17 2.78,-2.78 4.17,-6.13 4.17,-10.04 0,3.91 1.39,7.26 4.16,10.04 2.78,2.78 6.13,4.17 10.04,4.17 h 47.36 c 3.91,0 7.26,-1.4 10.03,-4.17 2.78,-2.78 4.17,-6.13 4.17,-10.04 0,-1.52 0.51,-2.69 1.52,-3.51 1.01,-0.82 2.08,-1.23 3.22,-1.23 3.91,0 7.26,-1.39 10.04,-4.17 2.73,-2.74 4.12,-6.03 4.16,-9.88 0.04,3.85 1.43,7.14 4.17,9.88 2.77,2.78 6.12,4.17 10.04,4.17 1.39,0 2.52,0.47 3.41,1.42 0.88,0.95 1.32,2.06 1.32,3.32 0,3.91 1.39,7.26 4.17,10.04 2.78,2.78 6.12,4.17 10.04,4.17 h 28.41 c 1.39,0 2.53,0.44 3.41,1.32 0.88,0.89 1.33,2.02 1.33,3.41 0,1.39 -0.45,2.53 -1.33,3.41 -0.88,0.89 -2.02,1.33 -3.41,1.33 h -47.35 c -3.92,0 -7.27,1.39 -10.04,4.17 -2.78,2.77 -4.17,6.13 -4.17,10.04 0,3.91 1.39,7.27 4.17,10.04 2.77,2.78 6.12,4.17 10.04,4.17 h 47.35 c 3.91,0 7.26,-1.39 10.04,-4.17 2.78,-2.78 4.17,-6.13 4.17,-10.04 0,-1.26 0.44,-2.37 1.32,-3.31 0.88,-0.95 2.02,-1.43 3.41,-1.43 3.91,0 7.26,-1.39 10.04,-4.16 2.78,-2.78 4.17,-6.13 4.17,-10.05 v -37.89 c 0,3.91 1.39,7.26 4.17,10.04 2.77,2.78 6.12,4.17 10.04,4.17 1.13,0 2.2,0.41 3.22,1.23 1,0.82 1.51,1.99 1.51,3.51 0,3.91 1.39,7.26 4.17,10.04 2.77,2.78 6.12,4.17 10.04,4.17 h 9.47 c 3.91,0 7.26,-1.4 10.03,-4.17 2.78,-2.78 4.17,-6.13 4.17,-10.04 0,-3.24 -0.95,-6.09 -2.85,-8.55 2.7,2.54 5.93,3.81 9.67,3.81 1.39,0 2.53,0.44 3.41,1.33 0.88,0.88 1.33,2.02 1.33,3.41 0,3.91 1.39,7.26 4.17,10.04 2.77,2.78 6.12,4.17 10.03,4.17 h 28.42 c 3.91,0 7.26,-1.4 10.04,-4.17 2.77,-2.78 4.16,-6.13 4.16,-10.04 0,-1.01 0.41,-2.06 1.24,-3.13 0.81,-1.07 1.98,-1.61 3.5,-1.61 3.91,0 7.26,-1.39 10.04,-4.17 2.78,-2.78 4.17,-6.13 4.17,-10.04 v 18.95 c 0,3.91 1.38,7.26 4.16,10.04 2.78,2.78 6.13,4.17 10.04,4.17 3.91,0 7.26,-1.4 10.04,-4.17 2.78,-2.78 4.17,-6.13 4.17,-10.04 V 98.944737 c 0,-1.26 0.44,-2.37 1.32,-3.31 0.89,-0.95 2.02,-1.42 3.41,-1.42 h 18.94 c 1.14,0 2.21,0.44 3.22,1.32 1.01,0.89 1.52,2.02 1.52,3.41 v 56.850003 c 0,3.91 1.39,7.26 4.17,10.04 2.77,2.78 6.12,4.17 10.03,4.17 3.91,0 7.27,-1.4 10.04,-4.17 2.78,-2.78 4.17,-6.13 4.17,-10.04 V 98.944737 c 0,-1.51 -0.28,-3.09 -0.85,-4.73 z m -541.07,42.630003 c 0,1.64 -0.5,2.84 -1.51,3.6 -1.01,0.76 -2.08,1.13 -3.22,1.13 H 74.741052 c -1.27,0 -2.37,-0.44 -3.32,-1.32 -0.94,-0.88 -1.42,-2.02 -1.42,-3.41 V 98.944737 c 0,-1.13 0.44,-2.21 1.33,-3.22 0.88,-1.01 2.02,-1.51 3.41,-1.51 h 28.409998 c 1.39,0 2.52,0.47 3.41,1.42 0.88,0.94 1.32,2.05 1.32,3.31 z m 93.2,3.41 c -1.02,0.88 -2.09,1.32 -3.23,1.32 h -28.41 c -1.13,0 -2.21,-0.44 -3.22,-1.32 -1.01,-0.88 -1.51,-2.02 -1.51,-3.41 0,-1.14 0.44,-2.21 1.32,-3.22 0.89,-1.01 2.02,-1.52 3.41,-1.52 h 28.41 c 1.39,0 2.53,0.51 3.41,1.52 0.89,1.01 1.33,2.08 1.33,3.22 0,1.39 -0.51,2.53 -1.51,3.41 z m 96.22,-3.41 c 0,1.64 -0.51,2.84 -1.51,3.6 -1.02,0.76 -2.09,1.13 -3.22,1.13 h -28.41 c -1.27,0 -2.37,-0.44 -3.32,-1.32 -0.95,-0.88 -1.42,-2.02 -1.42,-3.41 V 98.944737 c 0,-1.13 0.44,-2.21 1.32,-3.22 0.89,-1.01 2.02,-1.51 3.41,-1.51 h 28.42 c 1.38,0 2.52,0.47 3.41,1.42 0.88,0.94 1.32,2.05 1.32,3.31 z m 238.85,0 c 0,1.64 -0.51,2.84 -1.51,3.6 -1.02,0.76 -2.09,1.13 -3.22,1.13 h -28.41 c -1.27,0 -2.37,-0.44 -3.32,-1.32 -0.95,-0.88 -1.42,-2.02 -1.42,-3.41 V 98.944737 c 0,-1.13 0.44,-2.2 1.33,-3.22 0.88,-1.01 2.01,-1.51 3.4,-1.51 h 28.42 c 1.38,0 2.52,0.47 3.41,1.42 0.88,0.94 1.32,2.05 1.32,3.31 z m 142.59,-91.140003 c -0.47,-1.28 -0.16,-2.71 0.81,-3.68 l 13.11,-13.11 c 0.96,-0.96 2.4,-1.28 3.68,-0.81 l 27.96,10.27 c 0.69,0.25 1.14,0.91 1.14,1.64 v 6.12 c 0,0.46 -0.18,0.91 -0.51,1.23 l -6.8,6.8 c -0.48,0.48 -1.2,0.64 -1.84,0.4 l -7.51,-2.77 -8.25,-3.04 c -0.7,-0.26 -1.38,0.42 -1.12,1.12 l 5.81,15.76 c 0.24,0.64 0.08,1.36 -0.4,1.84 l -6.05,6.05 c -0.68,0.68 -0.68,1.79 0,2.47 l 6.08,6.08 c 0.48,0.48 0.64,1.2 0.4,1.84 l -5.81,15.76 c -0.26,0.700003 0.42,1.380003 1.12,1.120003 l 15.76,-5.810003 c 0.64,-0.24 1.36,-0.08 1.84,0.4 l 6.77,6.770003 c 0.33,0.33 0.51,0.77 0.51,1.23 v 6.12 c 0,0.73 -0.45,1.38 -1.14,1.64 l -27.92,10.3 c -1.28,0.47 -2.71,0.16 -3.68,-0.81 l -13.11,-13.11 c -0.96,-0.96 -1.28,-2.4 -0.81,-3.68 l 10.27,-27.830003 c 0.29,-0.78 0.29,-1.64 0,-2.42 l -10.3,-27.92 z m 96.3,58.160003 c 0.47,1.28 0.16,2.71 -0.81,3.68 l -13.11,13.11 c -0.96,0.96 -2.4,1.28 -3.68,0.81 l -27.96,-10.27 c -0.69,-0.25 -1.14,-0.91 -1.14,-1.64 v -6.12 c 0,-0.46 0.18,-0.91 0.51,-1.23 l 6.8,-6.800003 c 0.48,-0.48 1.2,-0.64 1.84,-0.4 l 7.51,2.77 8.25,3.040003 c 0.7,0.26 1.38,-0.42 1.12,-1.120003 l -5.81,-15.76 c -0.24,-0.64 -0.08,-1.36 0.4,-1.84 l 6.05,-6.05 c 0.68,-0.68 0.68,-1.79 0,-2.47 l -6.08,-6.08 c -0.48,-0.48 -0.64,-1.2 -0.4,-1.84 l 5.81,-15.76 c 0.26,-0.7 -0.42,-1.38 -1.12,-1.12 l -15.76,5.81 c -0.64,0.24 -1.36,0.08 -1.84,-0.4 l -6.77,-6.77 c -0.33,-0.33 -0.51,-0.77 -0.51,-1.23 v -6.12 c 0,-0.73 0.46,-1.38 1.14,-1.64 l 27.92,-10.3 c 1.28,-0.47 2.71,-0.16 3.68,0.81 l 13.11,13.11 c 0.96,0.96 1.28,2.4 0.81,3.68 l -10.27,27.83 c -0.29,0.78 -0.29,1.64 0,2.42 l 10.3,27.920003 v 0 z"
     id="path1"
     style="fill:#333333"
     clip-path="url(#clipPath3)"
     transform="matrix(1.0886633,0,0,1.1637392,-31.056021,-19.303675)" />
  <path
     class="cls-1"
     d="m 661.62316,259.11331 c -0.57,-1.64 -1.45,-3.16 -2.65,-4.55 -1.2,-1.39 -2.69,-2.56 -4.45,-3.51 -1.77,-0.94 -3.86,-1.42 -6.26,-1.42 -1.26,0 -2.36,-0.41 -3.31,-1.23 -0.95,-0.82 -1.42,-1.99 -1.42,-3.5 0,-3.92 -1.39,-7.27 -4.17,-10.05 -2.78,-2.77 -6.12,-4.16 -10.04,-4.16 h -37.88 c -3.92,0 -7.26,1.38 -10.04,4.16 -2.78,2.78 -4.17,6.13 -4.17,10.05 h 0.01 v 18.94 c 0,-3.91 -1.4,-7.26 -4.17,-10.04 -2.78,-2.78 -6.13,-4.17 -10.04,-4.17 -1.26,0 -2.37,-0.44 -3.32,-1.32 -0.94,-0.89 -1.42,-2.02 -1.42,-3.41 0,-3.92 -1.39,-7.27 -4.16,-10.05 -2.78,-2.77 -6.13,-4.16 -10.04,-4.16 h -28.42 c -3.91,0 -7.25,1.38 -10.03,4.16 -2.78,2.78 -4.17,6.13 -4.17,10.05 0,1.13 -0.45,2.21 -1.33,3.22 -0.88,1.01 -2.02,1.51 -3.41,1.51 -3.91,0 -7.26,1.39 -10.04,4.17 -2.78,2.78 -4.16,6.13 -4.16,10.04 v 37.9 c 0,3.23 0.94,6.08 2.84,8.54 -2.7,-2.53 -5.92,-3.81 -9.66,-3.81 h -9.47 c -1.14,0 -2.21,-0.4 -3.22,-1.23 -1.01,-0.82 -1.52,-1.99 -1.52,-3.5 v -94.74 c 0,-3.91 -1.39,-7.26 -4.17,-10.04 -2.77,-2.78 -6.12,-4.17 -10.03,-4.17 -3.91,0 -7.26,1.39 -10.04,4.17 -2.78,2.78 -4.17,6.13 -4.17,10.04 v 37.9 c 0,-3.92 -1.39,-7.27 -4.17,-10.05 -2.78,-2.77 -6.12,-4.16 -10.04,-4.16 -3.92,0 -7.26,1.38 -10.04,4.16 -2.78,2.78 -4.16,6.13 -4.16,10.05 v 56.84 c 0,1.39 -0.45,2.53 -1.33,3.41 -0.88,0.88 -2.02,1.32 -3.41,1.32 h -28.41 c -1.39,0 -2.53,-0.44 -3.41,-1.32 -0.88,-0.88 -1.33,-2.02 -1.33,-3.41 v -56.84 c 0,-3.92 -1.39,-7.27 -4.16,-10.05 -2.78,-2.77 -6.13,-4.16 -10.04,-4.16 -3.91,0 -7.26,1.38 -10.04,4.16 -2.78,2.78 -4.17,6.13 -4.17,10.05 v 18.71 c -0.05,-3.81 -1.44,-7.09 -4.16,-9.81 -2.78,-2.78 -6.13,-4.17 -10.04,-4.17 -1.39,0 -2.53,-0.44 -3.41,-1.32 -0.89,-0.89 -1.33,-2.02 -1.33,-3.42 0,-3.91 -1.39,-7.26 -4.17,-10.04 -2.77,-2.77 -6.12,-4.17 -10.03,-4.17 h -28.42 c -1.13,0 -2.21,-0.4 -3.22,-1.23 -1.01,-0.82 -1.51,-1.99 -1.51,-3.5 v -18.95 c 0,-3.91 -1.39,-7.26 -4.17,-10.04 -2.78,-2.78 -6.12,-4.17 -10.04,-4.17 -3.92,0 -7.26,1.39 -10.04,4.17 -2.78,2.78 -4.16,6.13 -4.16,10.04 v 56.84 c 0,-3.91 -1.4,-7.26 -4.17,-10.04 -2.78,-2.78 -6.13,-4.17 -10.04,-4.17 -1.01,0 -2.06,-0.41 -3.13,-1.23 -1.07,-0.82 -1.61,-1.99 -1.61,-3.5 0,-3.92 -1.39,-7.27 -4.17,-10.05 -2.77,-2.77 -6.12,-4.16 -10.04,-4.16 h -47.35 c -3.91,0 -7.26,1.38 -10.04,4.16 -2.78,2.78 -4.16,6.13 -4.16,10.05 0,3.92 1.39,7.26 4.16,10.04 2.78,2.78 6.13,4.17 10.04,4.17 h 47.35 c 1.02,0 2.06,0.41 3.13,1.23 1.07,0.82 1.61,1.99 1.61,3.5 0,1.51001 -0.54,2.69001 -1.61,3.51001 -1.07,0.82 -2.11,1.23 -3.13,1.23 h -47.35 c -3.91,0 -7.26,1.39 -10.04,4.17 -2.74,2.74 -4.13,6.05 -4.16,9.9 v -18.81001 c 0,-3.91 -1.4,-7.26 -4.17,-10.04 -2.78,-2.78 -6.13,-4.17 -10.04,-4.17 -1.39,0 -2.53,-0.44 -3.41,-1.32 -0.88,-0.89 -1.32,-2.02 -1.32,-3.42 0,-3.91 -1.4,-7.26 -4.17,-10.04 -2.78,-2.77 -6.13,-4.17 -10.04,-4.17 H 87.413158 c -1.14,0 -2.21,-0.4 -3.22,-1.23 -1.01,-0.82 -1.52,-1.99 -1.52,-3.5 v -18.95 c 0,-3.91 -1.39,-7.26 -4.17,-10.04 -2.77,-2.78 -6.12,-4.17 -10.03,-4.17 -3.91,0 -7.26,1.39 -10.04,4.17 -2.78,2.78 -4.17,6.13 -4.17,10.04 v 113.69 c 0,3.91 1.39,7.26 4.17,10.04 2.77,2.78 6.12,4.17 10.04,4.17 h 47.350002 c 3.91,0 7.26,-1.4 10.04,-4.17 2.77,-2.78 4.17,-6.13 4.17,-10.04 0,-1.52 0.5,-2.69 1.51,-3.51 1.01,-0.82 2.08,-1.23 3.22,-1.23 3.91,0 7.26,-1.39 10.04,-4.17 2.78,-2.78 4.17,-6.13 4.17,-10.04 0,3.91 1.39,7.26 4.17,10.04 2.77,2.78 6.12,4.17 10.03,4.17 1.14,0 2.21,0.44 3.22,1.33 1.01,0.88 1.52,2.02 1.52,3.41 0,3.91 1.39,7.26 4.17,10.04 2.77,2.78 6.12,4.17 10.03,4.17 h 47.36 c 3.91,0 7.26,-1.39 10.04,-4.17 2.78,-2.78 4.17,-6.13 4.17,-10.04 0,3.91 1.39,7.26 4.16,10.04 2.78,2.78 6.13,4.17 10.04,4.17 h 47.36 c 3.91,0 7.26,-1.4 10.03,-4.17 2.78,-2.78 4.17,-6.13 4.17,-10.04 0,-1.52 0.51,-2.69 1.52,-3.51 1.01,-0.82 2.08,-1.23 3.22,-1.23 3.91,0 7.26,-1.39 10.04,-4.17 2.73,-2.74 4.12,-6.03 4.16,-9.88 0.04,3.85 1.43,7.14 4.17,9.88 2.77,2.78 6.12,4.17 10.04,4.17 1.39,0 2.52,0.47 3.41,1.42 0.88,0.95 1.32,2.06 1.32,3.32 0,3.91 1.39,7.26 4.17,10.04 2.78,2.78 6.12,4.17 10.04,4.17 h 28.41 c 1.39,0 2.53,0.44 3.41,1.32 0.88,0.89 1.33,2.02 1.33,3.41 0,1.39 -0.45,2.53 -1.33,3.41 -0.88,0.89 -2.02,1.33 -3.41,1.33 h -47.35 c -3.92,0 -7.27,1.39 -10.04,4.17 -2.78,2.77 -4.17,6.13 -4.17,10.04 0,3.91 1.39,7.27 4.17,10.04 2.77,2.78 6.12,4.17 10.04,4.17 h 47.35 c 3.91,0 7.26,-1.39 10.04,-4.17 2.78,-2.78 4.17,-6.13 4.17,-10.04 0,-1.26 0.44,-2.37 1.32,-3.31 0.88,-0.95 2.02,-1.43 3.41,-1.43 3.91,0 7.26,-1.39 10.04,-4.16 2.78,-2.78 4.17,-6.13 4.17,-10.05 v -37.89 c 0,3.91 1.39,7.26 4.17,10.04 2.77,2.78 6.12,4.17 10.04,4.17 1.13,0 2.2,0.41 3.22,1.23 1,0.82 1.51,1.99 1.51,3.51 0,3.91 1.39,7.26 4.17,10.04 2.77,2.78 6.12,4.17 10.04,4.17 h 9.47 c 3.91,0 7.26,-1.4 10.03,-4.17 2.78,-2.78 4.17,-6.13 4.17,-10.04 0,-3.24 -0.95,-6.09 -2.85,-8.55 2.7,2.54 5.93,3.81 9.67,3.81 1.39,0 2.53,0.44 3.41,1.33 0.88,0.88 1.33,2.02 1.33,3.41 0,3.91 1.39,7.26 4.17,10.04 2.77,2.78 6.12,4.17 10.03,4.17 h 28.42 c 3.91,0 7.26,-1.4 10.04,-4.17 2.77,-2.78 4.16,-6.13 4.16,-10.04 0,-1.01 0.41,-2.06 1.24,-3.13 0.81,-1.07 1.98,-1.61 3.5,-1.61 3.91,0 7.26,-1.39 10.04,-4.17 2.78,-2.78 4.17,-6.13 4.17,-10.04 v 18.95 c 0,3.91 1.38,7.26 4.16,10.04 2.78,2.78 6.13,4.17 10.04,4.17 3.91,0 7.26,-1.4 10.04,-4.17 2.78,-2.78 4.17,-6.13 4.17,-10.04 v -56.85 c 0,-1.26 0.44,-2.37 1.32,-3.31 0.89,-0.95 2.02,-1.42 3.41,-1.42 h 18.94 c 1.14,0 2.21,0.44 3.22,1.32 1.01,0.89 1.52,2.02 1.52,3.41 v 56.85 c 0,3.91 1.39,7.26 4.17,10.04 2.77,2.78 6.12,4.17 10.03,4.17 3.91,0 7.27,-1.4 10.04,-4.17 2.78,-2.78 4.17,-6.13 4.17,-10.04 v -56.85 c 0,-1.51 -0.28,-3.09 -0.85,-4.73 z m -541.07,42.63 c 0,1.64 -0.5,2.84 -1.51,3.6 -1.01,0.76 -2.08,1.13 -3.22,1.13 H 87.413158 c -1.27,0 -2.37,-0.44 -3.32,-1.32 -0.94,-0.88 -1.42,-2.02 -1.42,-3.41 v -37.9 c 0,-1.13 0.44,-2.21 1.33,-3.22 0.88,-1.01 2.02,-1.51 3.41,-1.51 h 28.410002 c 1.39,0 2.52,0.47 3.41,1.42 0.88,0.94 1.32,2.05 1.32,3.31 z m 93.2,3.41 c -1.02,0.88 -2.09,1.32 -3.23,1.32 h -28.41 c -1.13,0 -2.21,-0.44 -3.22,-1.32 -1.01,-0.88 -1.51,-2.02 -1.51,-3.41 0,-1.14 0.44,-2.21 1.32,-3.22 0.89,-1.01 2.02,-1.52 3.41,-1.52 h 28.41 c 1.39,0 2.53,0.51 3.41,1.52 0.89,1.01 1.33,2.08 1.33,3.22 0,1.39 -0.51,2.53 -1.51,3.41 z m 96.22,-3.41 c 0,1.64 -0.51,2.84 -1.51,3.6 -1.02,0.76 -2.09,1.13 -3.22,1.13 h -28.41 c -1.27,0 -2.37,-0.44 -3.32,-1.32 -0.95,-0.88 -1.42,-2.02 -1.42,-3.41 v -37.9 c 0,-1.13 0.44,-2.21 1.32,-3.22 0.89,-1.01 2.02,-1.51 3.41,-1.51 h 28.42 c 1.38,0 2.52,0.47 3.41,1.42 0.88,0.94 1.32,2.05 1.32,3.31 z m 238.85,0 c 0,1.64 -0.51,2.84 -1.51,3.6 -1.02,0.76 -2.09,1.13 -3.22,1.13 h -28.41 c -1.27,0 -2.37,-0.44 -3.32,-1.32 -0.95,-0.88 -1.42,-2.02 -1.42,-3.41 v -37.9 c 0,-1.13 0.44,-2.2 1.33,-3.22 0.88,-1.01 2.01,-1.51 3.4,-1.51 h 28.42 c 1.38,0 2.52,0.47 3.41,1.42 0.88,0.94 1.32,2.05 1.32,3.31 z m 142.59,-91.14 c -0.47,-1.28 -0.16,-2.71 0.81,-3.68 l 13.11,-13.11 c 0.96,-0.96 2.4,-1.28 3.68,-0.81 l 27.96,10.27 c 0.69,0.25 1.14,0.91 1.14,1.64 v 6.12 c 0,0.46 -0.18,0.91 -0.51,1.23 l -6.8,6.8 c -0.48,0.48 -1.2,0.64 -1.84,0.4 l -7.51,-2.77 -8.25,-3.04 c -0.7,-0.26 -1.38,0.42 -1.12,1.12 l 5.81,15.76 c 0.24,0.64 0.08,1.36 -0.4,1.84 l -6.05,6.05 c -0.68,0.68 -0.68,1.79 0,2.47 l 6.08,6.08 c 0.48,0.48 0.64,1.2 0.4,1.84 l -5.81,15.76 c -0.26,0.70001 0.42,1.38001 1.12,1.12001 l 15.76,-5.81001 c 0.64,-0.24 1.36,-0.08 1.84,0.4 l 6.77,6.77001 c 0.33,0.33 0.51,0.77 0.51,1.23 v 6.12 c 0,0.73 -0.45,1.38 -1.14,1.64 l -27.92,10.3 c -1.28,0.47 -2.71,0.16 -3.68,-0.81 l -13.11,-13.11 c -0.96,-0.96 -1.28,-2.4 -0.81,-3.68 l 10.27,-27.83001 c 0.29,-0.78 0.29,-1.64 0,-2.42 l -10.3,-27.92 z m 96.3,58.16001 c 0.47,1.28 0.16,2.71 -0.81,3.68 l -13.11,13.11 c -0.96,0.96 -2.4,1.28 -3.68,0.81 l -27.96,-10.27 c -0.69,-0.25 -1.14,-0.91 -1.14,-1.64 v -6.12 c 0,-0.46 0.18,-0.91 0.51,-1.23 l 6.8,-6.80001 c 0.48,-0.48 1.2,-0.64 1.84,-0.4 l 7.51,2.77 8.25,3.04001 c 0.7,0.26 1.38,-0.42 1.12,-1.12001 l -5.81,-15.76 c -0.24,-0.64 -0.08,-1.36 0.4,-1.84 l 6.05,-6.05 c 0.68,-0.68 0.68,-1.79 0,-2.47 l -6.08,-6.08 c -0.48,-0.48 -0.64,-1.2 -0.4,-1.84 l 5.81,-15.76 c 0.26,-0.7 -0.42,-1.38 -1.12,-1.12 l -15.76,5.81 c -0.64,0.24 -1.36,0.08 -1.84,-0.4 l -6.77,-6.77 c -0.33,-0.33 -0.51,-0.77 -0.51,-1.23 v -6.12 c 0,-0.73 0.46,-1.38 1.14,-1.64 l 27.92,-10.3 c 1.28,-0.47 2.71,-0.16 3.68,0.81 l 13.11,13.11 c 0.96,0.96 1.28,2.4 0.81,3.68 l -10.27,27.83 c -0.29,0.78 -0.29,1.64 0,2.42 l 10.3,27.92001 v 0 z"
     id="path1-3"
     style="fill:#ff9955;fill-rule:evenodd"
     clip-path="url(#clipPath1)"
     transform="translate(3.157894,-184.21052)" />
  <text
     xml:space="preserve"
     style="font-size:66.6667px;line-height:0;letter-spacing:3.61px;fill:#ff9955;fill-opacity:1"
     x="429.26324"
     y="233.78951"
     id="text1"
     inkscape:transform-center-x="-18.947368"><tspan
       sodipodi:role="line"
       id="tspan1"
       x="429.26324"
       y="233.78951"
       style="font-style:normal;font-variant:normal;font-weight:bold;font-stretch:normal;font-size:66.6667px;line-height:0;font-family:'PT Sans Caption';-inkscape-font-specification:'PT Sans Caption Bold';letter-spacing:3.61px;fill:#ff9955;fill-opacity:1"
       dx="0">docs</tspan></text>
</svg>
